HIERARCHY
ROOT Hips
{
	OFFSET 0.00000 0.00000 0.00000
	CHANNELS 6 Xposition Yposition Zposition Zrotation Yrotation Xrotation 
	JOINT LHipJoint
	{
		OFFSET 0 0 0
		CHANNELS 3 Zrotation Yrotation Xrotation
		JOINT LeftUpLeg
		{
			OFFSET 1.58895 -1.83665 0.71753
			CHANNELS 3 Zrotation Yrotation Xrotation
			JOINT LeftLeg
			{
				OFFSET 2.50528 -6.88321 0.00000
				CHANNELS 3 Zrotation Yrotation Xrotation
				JOINT LeftFoot
				{
					OFFSET 2.63244 -7.23257 0.00000
					CHANNELS 3 Zrotation Yrotation Xrotation
					JOINT LeftToeBase
					{
						OFFSET 0.23691 -0.65090 1.72750
						CHANNELS 3 Zrotation Yrotation Xrotation
						End Site
						{
							OFFSET 0.00000 -0.00000 0.92561
						}
					}
				}
			}
		}
	}
	JOINT RHipJoint
	{
		OFFSET 0 0 0
		CHANNELS 3 Zrotation Yrotation Xrotation
		JOINT RightUpLeg
		{
			OFFSET -1.51435 -1.83665 0.71753
			CHANNELS 3 Zrotation Yrotation Xrotation
			JOINT RightLeg
			{
				OFFSET -2.54551 -6.99375 0.00000
				CHANNELS 3 Zrotation Yrotation Xrotation
				JOINT RightFoot
				{
					OFFSET -2.66027 -7.30903 0.00000
					CHANNELS 3 Zrotation Yrotation Xrotation
					JOINT RightToeBase
					{
						OFFSET -0.22981 -0.63138 2.03959
						CHANNELS 3 Zrotation Yrotation Xrotation
						End Site
						{
							OFFSET -0.00000 -0.00000 1.07060
						}
					}
				}
			}
		}
	}
	JOINT LowerBack
	{
		OFFSET 0 0 0
		CHANNELS 3 Zrotation Yrotation Xrotation
		JOINT Spine
		{
			OFFSET -0.02651 1.86275 -0.11152
			CHANNELS 3 Zrotation Yrotation Xrotation
			JOINT Spine1
			{
				OFFSET 0.01019 1.86224 0.04087
				CHANNELS 3 Zrotation Yrotation Xrotation
				JOINT Neck
				{
					OFFSET 0 0 0
					CHANNELS 3 Zrotation Yrotation Xrotation
					JOINT Neck1
					{
						OFFSET -0.01926 1.80512 0.08867
						CHANNELS 3 Zrotation Yrotation Xrotation
						JOINT Head
						{
							OFFSET 0.05516 1.76451 -0.38475
							CHANNELS 3 Zrotation Yrotation Xrotation
							End Site
							{
								OFFSET 0.01592 1.82587 -0.14001
							}
						}
					}
				}
				JOINT LeftShoulder
				{
					OFFSET 0 0 0
					CHANNELS 3 Zrotation Yrotation Xrotation
					JOINT LeftArm
					{
						OFFSET 3.47116 1.51376 0.14491
						CHANNELS 3 Zrotation Yrotation Xrotation
						JOINT LeftForeArm
						{
							OFFSET 4.78095 -0.00000 0.00000
							CHANNELS 3 Zrotation Yrotation Xrotation
							JOINT LeftHand
							{
								OFFSET 3.58615 -0.00000 -0.00000
								CHANNELS 3 Zrotation Yrotation Xrotation
								JOINT LeftFingerBase
								{
									OFFSET 0 0 0
									CHANNELS 3 Zrotation Yrotation Xrotation
									JOINT LeftHandIndex1
									{
										OFFSET 0.65981 -0.00000 0.00000
										CHANNELS 3 Zrotation Yrotation Xrotation
										End Site
										{
											OFFSET 0.53196 -0.00000 0.00000
										}
									}
								}
								JOINT LThumb
								{
									OFFSET 0 0 0
									CHANNELS 3 Zrotation Yrotation Xrotation
									End Site
									{
										OFFSET 0.54008 -0.00000 0.54008
									}
								}
							}
						}
					}
				}
				JOINT RightShoulder
				{
					OFFSET 0 0 0
					CHANNELS 3 Zrotation Yrotation Xrotation
					JOINT RightArm
					{
						OFFSET -3.31725 1.61216 0.35156
						CHANNELS 3 Zrotation Yrotation Xrotation
						JOINT RightForeArm
						{
							OFFSET -4.48913 -0.00000 0.00000
							CHANNELS 3 Zrotation Yrotation Xrotation
							JOINT RightHand
							{
								OFFSET -3.70510 -0.00000 0.00000
								CHANNELS 3 Zrotation Yrotation Xrotation
								JOINT RightFingerBase
								{
									OFFSET 0 0 0
									CHANNELS 3 Zrotation Yrotation Xrotation
									JOINT RightHandIndex1
									{
										OFFSET -0.44914 -0.00000 0.00000
										CHANNELS 3 Zrotation Yrotation Xrotation
										End Site
										{
											OFFSET -0.36211 -0.00000 0.00000
										}
									}
								}
								JOINT RThumb
								{
									OFFSET 0 0 0
									CHANNELS 3 Zrotation Yrotation Xrotation
									End Site
									{
										OFFSET -0.36763 -0.00000 0.36763
									}
								}
							}
						}
					}
				}
			}
		}
	}
}
MOTION
Frames: 8
Frame Time: .0083333
-0.7747 18.7248 6.1280 -4.4795 -1.2959 4.0729 0.0000 0.0000 0.0000 -9.2045 -7.9859 -4.4863 1.4840 7.6965 21.7961 1.6542 4.9761 -26.5168 8.4563 -16.4448 -54.1902 0.0000 0.0000 0.0000 0.0000 0.0000 0.0000 0.0000 0.0000 0.0000 -0.0000 -0.0000 0.0000 -0.0000 -0.0000 0.0000 4.9835 1.5614 5.8104 0.3497 2.5094 -2.3207 -2.6894 1.0697 -5.4858 -6.4516 -8.5704 -8.5988 7.0535 -11.3377 6.3961 2.4349 -5.4337 4.0786 -0.0000 0.0000 0.0000 -85.3891 16.8940 33.3295 28.0096 -39.1251 -10.1298 -0.0000 -0.0000 3.7116 1.6657 -23.3494 -0.6603 -7.1250 0.0000 -0.0000 -16.9452 7.4265 15.3163 -0.0000 0.0000 0.0000 30.9280 35.4377 6.5797 -106.6755 58.9228 -74.3892 0.0000 0.0000 15.1953 -47.5105 -26.3515 25.8541 7.1250 -0.0000 -0.0000 -24.0704 -64.6866 11.7884
-0.7744 18.7241 6.1311 -4.4882 -1.1159 4.1149 0.0000 0.0000 0.0000 -9.1408 -7.9399 -4.6235 1.4880 7.7066 21.8263 1.6527 4.7310 -26.3753 8.4585 -16.4463 -54.1977 0.0000 0.0000 0.0000 0.0000 0.0000 0.0000 0.0000 0.0000 0.0000 -0.0000 -0.0000 0.0000 -0.0000 -0.0000 0.0000 4.8955 1.5611 5.8243 0.3589 2.5046 -2.3591 -2.6315 1.0686 -5.5383 -6.5437 -8.5868 -8.4107 7.1100 -11.3542 6.2176 2.4758 -5.4478 4.0032 -0.0000 0.0000 0.0000 -85.3867 16.9275 33.4404 28.0313 -39.1450 -10.1434 -0.0000 -0.0000 3.6521 1.5656 -23.4060 -0.6220 -7.1250 0.0000 -0.0000 -17.0037 7.3787 15.3910 -0.0000 0.0000 0.0000 30.5760 33.3747 3.9057 -105.6789 59.0504 -73.5350 0.0000 0.0000 14.0534 -45.4364 -24.7514 23.0308 7.1250 -0.0000 -0.0000 -20.3322 -62.1442 8.6693
-0.7735 18.7242 6.1345 -4.5228 -0.8636 4.1703 0.0000 0.0000 0.0000 -9.0426 -7.9044 -4.7902 1.4911 7.7141 21.8489 1.6392 4.4983 -26.1566 8.4852 -16.4648 -54.2921 0.0000 0.0000 0.0000 0.0000 0.0000 0.0000 0.0000 0.0000 0.0000 -0.0000 -0.0000 0.0000 -0.0000 -0.0000 0.0000 4.8156 1.5481 5.8033 0.3731 2.4809 -2.3748 -2.5693 1.0595 -5.5483 -6.6693 -8.6265 -8.3004 7.2540 -11.4050 6.0820 2.5410 -5.4732 3.9633 -0.0000 -0.0000 0.0000 -85.3601 16.9220 33.5716 28.0902 -39.1991 -10.1806 -0.0000 -0.0000 3.5131 1.5397 -23.4256 -0.6122 -7.1250 0.0000 -0.0000 -17.0186 7.3616 15.4118 -0.0000 -0.0000 0.0000 30.5312 31.3917 1.2043 -103.8518 59.2624 -71.9663 0.0000 0.0000 13.9522 -45.9991 -26.0988 24.4910 7.1250 -0.0000 -0.0000 -21.5444 -63.9178 10.1086
-0.7717 18.7257 6.1385 -4.4837 -0.5204 4.2033 0.0000 0.0000 0.0000 -9.0377 -7.9553 -4.9241 1.4941 7.7215 21.8713 1.6163 4.3227 -25.9001 8.5355 -16.4993 -54.4692 0.0000 0.0000 0.0000 0.0000 0.0000 0.0000 0.0000 0.0000 0.0000 -0.0000 -0.0000 0.0000 -0.0000 -0.0000 0.0000 4.6774 1.5219 5.7667 0.3655 2.4310 -2.3413 -2.4930 1.0416 -5.5005 -6.9794 -8.6914 -8.3420 7.5980 -11.4831 6.0252 2.6834 -5.5025 3.9971 0.0000 -0.0000 0.0000 -85.3577 16.8000 33.6697 28.1448 -39.2492 -10.2152 -0.0000 -0.0000 3.4092 1.5278 -23.3900 -0.6066 -7.1250 0.0000 -0.0000 -17.0269 7.3963 15.4080 0.0000 -0.0000 0.0000 30.6312 29.6166 -1.8053 -101.6115 59.4844 -70.0385 0.0000 0.0000 12.6703 -46.8541 -28.0462 26.6404 7.1250 -0.0000 -0.0000 -23.5730 -66.4677 12.4950
-0.7715 18.7265 6.1420 -4.4014 -0.1746 4.2095 0.0000 0.0000 0.0000 -9.0971 -8.1164 -4.9884 1.4977 7.7304 21.8983 1.6040 4.2160 -25.7559 8.5647 -16.5193 -54.5723 0.0000 0.0000 0.0000 0.0000 0.0000 0.0000 0.0000 0.0000 0.0000 -0.0000 -0.0000 0.0000 -0.0000 -0.0000 0.0000 4.5483 1.5076 5.7615 0.3097 2.3970 -2.3025 -2.4746 1.0300 -5.4615 -7.2266 -8.7530 -8.2899 7.8876 -11.5567 5.8442 2.8070 -5.5344 3.9712 -0.0000 -0.0000 0.0000 -85.2872 16.6930 33.8053 28.2643 -39.3584 -10.2909 -0.0000 -0.0000 3.3222 1.5653 -23.4257 -0.6224 -7.1250 0.0000 -0.0000 -17.0033 7.3599 15.3971 -0.0000 -0.0000 0.0000 30.9170 28.0679 -4.9077 -98.8931 59.6990 -67.6939 0.0000 0.0000 10.8907 -46.3564 -28.9578 26.9147 7.1250 -0.0000 -0.0000 -23.0011 -67.3667 12.6468
-0.7712 18.7260 6.1439 -4.4365 0.1227 4.2180 0.0000 0.0000 0.0000 -9.0217 -8.2368 -5.0609 1.5003 7.7368 21.9174 1.5990 4.0691 -25.6442 8.5588 -16.5153 -54.5514 0.0000 0.0000 0.0000 0.0000 0.0000 0.0000 0.0000 0.0000 0.0000 -0.0000 -0.0000 0.0000 -0.0000 -0.0000 0.0000 4.6182 1.4863 5.8146 0.2410 2.3732 -2.2928 -2.5847 1.0141 -5.4779 -7.2450 -8.8154 -8.1418 7.9992 -11.6437 5.6137 2.8469 -5.5791 3.8916 0.0000 0.0000 0.0000 -85.1034 16.7159 34.0083 28.4837 -39.5577 -10.4303 -0.0000 -0.0000 3.0983 1.7191 -23.4170 -0.6834 -7.1250 0.0000 -0.0000 -16.9111 7.3586 15.3059 0.0000 0.0000 0.0000 31.3924 26.7994 -7.6601 -96.0102 59.8631 -65.2026 0.0000 0.0000 10.0009 -46.8273 -30.2943 28.2664 7.1250 -0.0000 -0.0000 -24.3372 -69.0438 14.3282
-0.7706 18.7254 6.1445 -4.5244 0.3640 4.2314 0.0000 0.0000 0.0000 -8.8863 -8.3295 -5.1356 1.5024 7.7421 21.9333 1.5975 3.8922 -25.5446 8.5283 -16.4944 -54.4441 0.0000 0.0000 0.0000 0.0000 0.0000 0.0000 0.0000 0.0000 0.0000 -0.0000 -0.0000 0.0000 -0.0000 -0.0000 0.0000 4.7486 1.4369 5.9160 0.2109 2.3220 -2.2912 -2.6875 0.9821 -5.5325 -7.2254 -8.8857 -8.1372 8.0502 -11.7394 5.5152 2.8534 -5.6250 3.8703 -0.0000 -0.0000 0.0000 -84.9753 16.8467 34.1251 28.7447 -39.7928 -10.5969 -0.0000 -0.0000 2.7214 2.4665 -23.5062 -0.9843 -7.1250 0.0000 -0.0000 -16.4589 7.2242 14.9032 -0.0000 -0.0000 0.0000 31.8001 25.8217 -9.8489 -94.2141 59.9328 -63.6487 0.0000 0.0000 9.7052 -46.3003 -31.4727 28.6497 7.1250 -0.0000 -0.0000 -23.7252 -70.2127 14.5647
-0.7698 18.7255 6.1432 -4.5663 0.4935 4.2351 0.0000 0.0000 0.0000 -8.8218 -8.4251 -5.1666 1.5047 7.7475 21.9499 1.6006 3.7900 -25.5164 8.5004 -16.4753 -54.3459 0.0000 0.0000 0.0000 0.0000 0.0000 0.0000 0.0000 0.0000 0.0000 -0.0000 -0.0000 0.0000 -0.0000 -0.0000 0.0000 4.8021 1.3708 6.0760 0.2216 2.2479 -2.2931 -2.7046 0.9409 -5.6305 -7.1396 -8.9099 -8.2671 7.9924 -11.7683 5.5153 2.8152 -5.6366 3.8849 0.0000 -0.0000 0.0000 -85.0003 17.0754 34.0137 29.0155 -40.0345 -10.7707 -0.0000 -0.0000 2.3371 3.6666 -23.8199 -1.4825 -7.1250 0.0000 -0.0000 -15.7293 6.8376 14.3087 0.0000 -0.0000 0.0000 32.0975 25.0696 -10.9798 -93.7669 59.9463 -63.2617 0.0000 0.0000 10.1186 -46.0704 -31.5166 28.4865 7.1250 -0.0000 -0.0000 -23.2820 -70.1905 14.2714
